<svg xmlns="http://www.w3.org/2000/svg" xml:space="preserve" id="_x32_" width="800" height="800" version="1.1" viewBox="0 0 512 512"><style>.st0{fill:#000}</style><path d="M438.41 404.336c-12.321-18.452-31.032-28.649-48.621-35.278-8.81-3.315-17.434-5.766-25.027-7.84-7.58-2.066-14.175-3.81-18.605-5.475-7.749-2.875-15.934-6.606-21.645-10.62-2.851-1.987-5.051-4.037-6.324-5.781-1.288-1.791-1.638-3.024-1.654-4.101v-29.025c9.914-11.037 24.155-28.13 30.008-55.23 2.042-.92 4.065-1.964 6.013-3.315 4.85-3.346 8.963-8.209 12.451-14.815 3.503-6.638 6.614-15.122 9.929-26.724 1.68-5.875 2.454-10.99 2.454-15.538.008-5.248-1.072-9.804-3.052-13.495-.447-.84-1.002-1.508-1.512-2.239 1.807-3.676 6.661-16.103 6.661-43.707 0-33.934-14.242-100.068-55.938-111.89C292.506 10.447 250.177 0 202.484 0c-47.694 0-55.938 33.015-50.435 55.945-29.01 24.037-16.076 93.015-11.288 116.895-1.136 1.248-2.219 2.616-3.091 4.258-1.98 3.692-3.068 8.248-3.06 13.495.008 4.548.782 9.662 2.463 15.538 4.434 15.459 8.44 25.435 13.624 32.757 2.593 3.636 5.546 6.559 8.755 8.782 1.948 1.351 3.97 2.395 6.013 3.315 5.852 27.1 20.094 44.194 30.007 55.23v29.025c0 .92-.365 2.239-1.787 4.124-2.085 2.804-6.405 6.206-11.539 9.088-5.118 2.906-11.002 5.428-16.154 7.243-6.049 2.144-15.793 4.375-26.708 7.51-16.406 4.744-35.801 11.578-51.578 25.106-7.875 6.763-14.796 15.262-19.654 25.82-4.871 10.558-7.663 23.094-7.656 37.768 0 3.41.15 6.929.46 10.566.22 2.553 1.194 4.627 2.332 6.332 2.172 3.197 5.051 5.561 8.657 7.997 6.319 4.187 15.07 8.272 26.276 12.278 33.542 11.964 89.071 22.914 157.884 22.93 55.902 0 103.093-7.258 136.772-16.37 16.85-4.564 30.302-9.568 40.027-14.564 4.866-2.522 8.806-5.004 11.928-7.73 1.563-1.374 2.934-2.82 4.085-4.54 1.135-1.705 2.113-3.778 2.334-6.332.306-3.636.451-7.148.451-10.534.028-19.569-4.995-35.334-13.192-47.596m-314.647 76.777c-.177-.047-.386-.094-.562-.142-16.088-4.352-28.743-9.135-37.046-13.417-4.132-2.12-7.18-4.148-8.865-5.632-.722-.628-1.127-1.108-1.332-1.382-.236-2.993-.369-5.892-.369-8.642.028-17.046 4.195-29.496 10.632-39.26 9.21-13.951 23.758-22.686 39.131-28.75a133.77 133.77 0 0 1 1.771 10.675c1.143 8.939 1.823 19.694 1.823 31.414.001 17.203-1.59 36.448-5.183 55.136m132.243-37.037-78.361-76.613c6.06-2.506 12.4-5.68 17.997-9.56 3.838-2.687 7.348-5.687 10.141-9.356 2.757-3.614 4.874-8.138 4.874-13.307v-34.846l-1.948-2.176c-10.358-11.532-24.383-26.842-29.245-54.06l-.77-4.352-4.152-1.485c-2.643-.943-4.658-1.909-6.418-3.126-2.596-1.838-4.953-4.336-7.702-9.458-2.718-5.098-5.597-12.717-8.747-23.77-1.383-4.831-1.874-8.586-1.874-11.375.008-3.237.628-5.138 1.26-6.331.959-1.736 2.133-2.474 3.622-3.072 1.449-.558 3.036-.636 3.229-.62l3.196.165c8.963 7.887 15.699 21.948 15.699 21.948s-2.753-6.426-2.753-30.267c0-23.84 15.593-55.946 15.593-55.946s-9.097-23.354-8.268-31.397c.322-.518.726-.998 1.064-1.5 21.052 35.678 80.477 42.144 93.411 38.404 41.268-11.932 56.864 9.175 56.864 9.175s9.167 56.857 9.167 76.118c1.025-9.725 10.326-18.295 18.35-23.982.244.298.479.573.699.974.64 1.194 1.257 3.094 1.268 6.331 0 2.789-.491 6.544-1.874 11.375-4.187 14.752-7.946 23.33-11.39 28.09-1.724 2.404-3.303 3.912-5.055 5.138-1.764 1.218-3.778 2.184-6.422 3.126l-4.16 1.485-.762 4.352c-4.862 27.218-18.888 42.528-29.245 54.06l-1.948 2.176v34.846c-.012 5.012 1.936 9.506 4.599 13.103 4.046 5.42 9.654 9.434 15.766 12.938 4.092 2.326 8.429 4.281 12.741 6.088zm180.035 16.44-.656.778c-1.12 1.131-3.378 2.836-6.552 4.643-8.161 4.705-22.159 10.195-40.592 15.168-3.594-18.687-5.189-37.933-5.181-55.128-.008-11.72.676-22.474 1.823-31.414a133.655 133.655 0 0 1 1.724-10.447c9.992 3.935 19.729 9.002 27.753 15.892 6.477 5.537 11.897 12.199 15.785 20.581 3.881 8.382 6.264 18.562 6.264 31.342.002 2.725-.132 5.608-.368 8.585" class="st0"/><path d="M221.286 353.103v43.157l34.968-15.624 34.967 15.624v-43.157l-34.967 15.624z" class="st0"/></svg>